<svg width="24" height="24" viewBox="0 0 24 24" fill="none" xmlns="http://www.w3.org/2000/svg">
<path d="M19.8356 16.9074C20.2788 12.6479 20.2788 8.3539 19.8356 4.0944C19.697 2.76209 18.1609 2.08721 17.0859 2.88633L12.9822 5.93673C11.6886 6.8983 10.1197 7.41755 8.50791 7.41755H4.67871C4.12643 7.41755 3.67871 7.86527 3.67871 8.41755V12.5842C3.67871 13.1365 4.12643 13.5842 4.67871 13.5842L8.5079 13.5842C10.1197 13.5842 11.6886 14.1035 12.9822 15.065L17.0859 18.1155C18.1609 18.9146 19.697 18.2397 19.8356 16.9074Z" fill="#9A9AA9"/>
<path d="M9.09213 15.8029C9.14957 15.5784 9.10006 15.34 8.95799 15.157C8.81592 14.974 8.59724 14.8669 8.36556 14.8669L6.36555 14.8669C6.08147 14.8669 5.82177 15.0274 5.69473 15.2815L4.69473 17.2815C4.52396 17.623 4.63707 18.0384 4.95745 18.2462L7.09142 19.6301C7.29403 19.7615 7.54751 19.7874 7.77244 19.6995C7.99738 19.6116 8.16623 19.4208 8.22611 19.1868L9.09213 15.8029Z" fill="#9A9AA9"/>
</svg>
