<svg width="24" height="24" viewBox="0 0 24 24" fill="none" xmlns="http://www.w3.org/2000/svg">
<path d="M13.7958 2.76097C12.8133 1.74635 11.1861 1.74635 10.2037 2.76096L5.40521 7.71669C5.12963 8.00131 4.94444 8.36112 4.87299 8.75079C4.29023 11.9288 4.24721 15.1822 4.74574 18.3745L4.92225 19.5047C4.978 19.8617 5.28546 20.1248 5.64677 20.1248H8.99973C9.27587 20.1248 9.49973 19.901 9.49973 19.6248V12.6248H14.4997V19.6248C14.4997 19.901 14.7236 20.1248 14.9997 20.1248H18.3526C18.7139 20.1248 19.0214 19.8617 19.0772 19.5047L19.2537 18.3745C19.7522 15.1822 19.7092 11.9288 19.1264 8.75079C19.055 8.36112 18.8698 8.00131 18.5942 7.7167L13.7958 2.76097Z" fill="#9A9AA9"/>
</svg>
