<svg width="18" height="18" viewBox="0 0 18 18" fill="none" xmlns="http://www.w3.org/2000/svg">
<g opacity="0.4">
<path fill-rule="evenodd" clip-rule="evenodd" d="M6.57946 8.35768C6.21487 8.35768 5.9266 8.64102 5.9266 8.99935C5.9266 9.34935 6.21487 9.64102 6.57946 9.64102H11.6667V13.6243C11.6667 15.666 9.97941 17.3327 7.89365 17.3327H3.76453C1.68726 17.3327 0 15.6743 0 13.6327V4.37435C0 2.32435 1.69574 0.666016 3.77301 0.666016H7.91061C9.97941 0.666016 11.6667 2.32435 11.6667 4.36602V8.35768H6.57946ZM14.6919 6.11619L17.1252 8.54119C17.2502 8.66619 17.3169 8.82452 17.3169 8.99952C17.3169 9.16619 17.2502 9.33285 17.1252 9.44952L14.6919 11.8745C14.5669 11.9995 14.4002 12.0662 14.2419 12.0662C14.0752 12.0662 13.9085 11.9995 13.7835 11.8745C13.5335 11.6245 13.5335 11.2162 13.7835 10.9662L15.1169 9.64119H11.6669V8.35785H15.1169L13.7835 7.03285C13.5335 6.78285 13.5335 6.37452 13.7835 6.12452C14.0335 5.86619 14.4419 5.86619 14.6919 6.11619Z" fill="#030229"/>
</g>
</svg>
