<svg width="20" height="20" viewBox="0 0 20 20" fill="none" xmlns="http://www.w3.org/2000/svg">
<path d="M10 0C4.5 0 0 4.5 0 10C0 15.5 4.5 20 10 20C15.5 20 20 15.5 20 10C20 4.5 15.5 0 10 0Z" fill="#9A9AA9"/>
<path d="M6.8298 5.05078C7.8098 5.05078 8.5998 5.84078 8.5998 6.83078C8.5998 7.81078 7.8098 8.60078 6.8298 8.60078C5.8398 8.60078 5.0498 7.81078 5.0498 6.83078C5.0498 5.84078 5.8398 5.05078 6.8298 5.05078Z" fill="white"/>
<path d="M13.22 15C12.24 15 11.45 14.2 11.45 13.22C11.45 12.24 12.24 11.45 13.22 11.45C14.2 11.45 15 12.24 15 13.22C15 14.2 14.2 15 13.22 15ZM6.5 15.03L5 13.53L13.53 5L15.03 6.5L6.5 15.03Z" fill="white"/>
</svg>
