<svg width="24" height="24" viewBox="0 0 24 24" fill="none" xmlns="http://www.w3.org/2000/svg">
<path d="M8.74963 11.9996C8.74963 10.2047 10.2047 8.74964 11.9996 8.74964C13.7946 8.74964 15.2496 10.2047 15.2496 11.9996C15.2496 13.7946 13.7946 15.2496 11.9996 15.2496C10.2047 15.2496 8.74963 13.7946 8.74963 11.9996Z" fill="#9A9AA9"/>
<path fill-rule="evenodd" clip-rule="evenodd" d="M11.4604 1.83816C11.7552 1.53311 12.2441 1.53311 12.5389 1.83816L15.1112 4.49964H18.7496C19.1639 4.49964 19.4996 4.83543 19.4996 5.24964V8.88804L22.1611 11.4604C22.4662 11.7552 22.4662 12.2441 22.1611 12.5389L19.4996 15.1112V18.7496C19.4996 19.1639 19.1639 19.4996 18.7496 19.4996H15.1112L12.5389 22.1611C12.2441 22.4662 11.7552 22.4662 11.4604 22.1611L8.88803 19.4996H5.24964C4.83543 19.4996 4.49964 19.1639 4.49964 18.7496V15.1113L1.83816 12.5389C1.53312 12.2441 1.53311 11.7552 1.83816 11.4604L4.49964 8.88803V5.24964C4.49964 4.83543 4.83543 4.49964 5.24964 4.49964H8.88803L11.4604 1.83816ZM11.9996 7.24964C9.37628 7.24964 7.24963 9.37629 7.24963 11.9996C7.24963 14.623 9.37628 16.7496 11.9996 16.7496C14.623 16.7496 16.7496 14.623 16.7496 11.9996C16.7496 9.37629 14.623 7.24964 11.9996 7.24964Z" fill="#9A9AA9"/>
</svg>
