<svg width="20" height="20" viewBox="0 0 20 20" fill="none" xmlns="http://www.w3.org/2000/svg">
<path d="M7.92051 5.40766L7.9208 5.40832C8.05207 5.70083 8.26946 6.23024 8.44289 6.65259L8.44632 6.66094C8.51481 6.82774 8.57658 6.97816 8.62474 7.09391C8.64884 7.15184 8.66898 7.19974 8.68453 7.23596C8.69831 7.26808 8.70531 7.2835 8.70732 7.28796C8.70785 7.28911 8.70804 7.28952 8.70792 7.28931C8.80806 7.48871 8.91023 7.81184 8.73021 8.18078L7.92051 5.40766ZM7.92051 5.40766C7.79974 5.13959 7.64305 4.92805 7.42222 4.80005M7.92051 5.40766L7.42222 4.80005M11.254 11.965C11.1997 11.938 11.1318 11.9087 11.0692 11.8817L11.0601 11.8778L11.059 11.8773C10.7137 11.7283 10.0551 11.4441 9.29104 10.7639L9.29018 10.7631C8.64388 10.1904 8.18104 9.48318 8.00006 9.18277C8.08726 9.09454 8.18072 8.98156 8.25623 8.89029L8.26519 8.87946C8.31448 8.8199 8.3589 8.76627 8.40061 8.7184L8.40072 8.71827C8.55843 8.53714 8.6307 8.38709 8.69912 8.24506L8.70297 8.23707L8.70297 8.23706L8.73017 8.18086L7.95436 9.1104L7.92563 9.12705L7.92537 9.1272L7.52392 9.35991M11.254 11.965L11.2448 11.9834C11.2493 11.9782 11.2539 11.9728 11.2587 11.9673M11.254 11.965C11.254 11.965 11.2539 11.9649 11.2539 11.9649L11.2446 11.9836C11.2324 11.9978 11.2213 12.0108 11.2114 12.0223L11.2113 12.0223C11.1985 12.0372 11.1988 12.0333 11.2134 12.0241C11.2134 12.0241 11.2134 12.0241 11.2134 12.0241C11.2139 12.0237 11.2145 12.0234 11.2151 12.023C11.219 12.0207 11.2235 12.0181 11.2287 12.0155L11.2212 12.0307L11.2212 12.0308L11.0312 12.4126M11.254 11.965C11.2556 11.9658 11.2571 11.9665 11.2587 11.9673M11.2587 11.9673C11.2993 11.9872 11.3216 11.9942 11.3296 11.9963C11.3307 11.9966 11.3312 11.9967 11.3312 11.9967C11.3312 11.9967 11.3171 11.9938 11.2932 11.9966C11.2791 11.9983 11.2643 12.0016 11.2497 12.0068C11.2419 12.0095 11.2349 12.0125 11.2288 12.0155L11.2212 12.0308L11.2212 12.0308L11.0312 12.4126M11.2587 11.9673C11.4477 11.747 11.85 11.2736 11.9909 11.0662M11.0312 12.4126C11.2885 12.5406 11.4418 12.5209 11.5902 12.3486C11.7387 12.1762 12.2333 11.6001 12.4065 11.3441M11.0312 12.4126C10.9894 12.3918 10.9324 12.3672 10.862 12.3368C10.4997 12.1805 9.78289 11.8712 8.95857 11.1373C8.19181 10.4579 7.6724 9.6159 7.52392 9.35991M11.9909 11.0662C11.9901 11.0673 11.9894 11.0685 11.9886 11.0696L12.4065 11.3441M11.9909 11.0662C11.9914 11.0654 11.9919 11.0647 11.9924 11.064L12.4065 11.3441M11.9909 11.0662C12.1286 10.858 12.329 10.6876 12.6114 10.6544C12.8384 10.6276 13.0465 10.7053 13.1556 10.746L13.16 10.7477L13.1601 10.7477C13.3062 10.8022 13.7095 10.9933 14.0752 11.1693C14.4553 11.3523 14.8382 11.5404 14.969 11.6055L14.9691 11.6055C15.0162 11.629 15.0606 11.6502 15.1049 11.6715L14.8888 12.1224M12.4065 11.3441C12.5747 11.0881 12.7478 11.1275 12.9853 11.2161C13.2227 11.3047 14.4891 11.9251 14.7463 12.0531C14.7971 12.0784 14.8447 12.1012 14.8888 12.1224M7.52392 9.35991L7.92529 9.12711L7.92554 9.12696L7.95433 9.11027L8.02363 8.38994C7.97698 8.44348 7.92839 8.50219 7.87998 8.56069C7.79484 8.66358 7.71025 8.7658 7.63774 8.83802C7.50914 8.96593 7.37553 9.10391 7.52392 9.35991ZM14.8888 12.1224C15.0677 12.2082 15.1894 12.2665 15.241 12.3535M14.8888 12.1224L15.1049 11.6715L15.1171 11.6774C15.1965 11.7154 15.2919 11.7611 15.3733 11.8108C15.4583 11.8627 15.5835 11.9509 15.671 12.0984M15.241 12.3535L15.671 12.0984M15.241 12.3535C15.3053 12.4618 15.3053 12.9739 15.0926 13.5746M15.241 12.3535L15.0926 13.5746M15.241 12.3535L15.6709 12.0982C15.6709 12.0983 15.671 12.0983 15.671 12.0984M15.241 12.3535L5.45088 10.5726M15.671 12.0984C15.7506 12.2325 15.767 12.387 15.7733 12.4663C15.7816 12.5722 15.7798 12.6933 15.7688 12.822C15.7467 13.0806 15.6846 13.4006 15.5639 13.7415L15.5627 13.7449C15.3959 14.2053 14.9606 14.5749 14.5892 14.8141C14.2114 15.0574 13.751 15.2604 13.3982 15.2934M15.0926 13.5746C14.875 14.1752 13.8262 14.7513 13.3513 14.7956M15.0926 13.5746L4.80318 7.62685C4.80318 8.87067 5.70413 10.0762 5.85139 10.2733L5.85687 10.2806M13.3513 14.7956C13.3063 14.7999 13.2616 14.8053 13.2155 14.8108M13.3513 14.7956L13.3977 15.2935C13.3979 15.2934 13.3981 15.2934 13.3982 15.2934M13.3513 14.7956L13.3982 15.2934M13.2155 14.8108C12.7803 14.8635 12.2278 14.9303 10.2595 14.1555M13.2155 14.8108L13.2756 15.3072C13.0357 15.3362 12.7353 15.3714 12.2297 15.2866C11.7426 15.2049 11.0761 15.0143 10.0764 14.6208M13.2155 14.8108L13.2756 15.3072C13.3228 15.3015 13.3609 15.2969 13.3982 15.2934M10.2595 14.1555C7.83414 13.2018 6.23311 10.8354 5.90942 10.357M10.2595 14.1555L10.0764 14.6208M10.2595 14.1555L10.0765 14.6209C10.0765 14.6208 10.0764 14.6208 10.0764 14.6208M5.90942 10.357C5.88387 10.3192 5.86628 10.2932 5.85687 10.2806M5.90942 10.357L5.4953 10.6371L5.46461 10.5919L5.45627 10.5799C5.45576 10.5791 5.45539 10.5786 5.45514 10.5783L5.45088 10.5726M5.90942 10.357L5.4953 10.6371L5.50095 10.6455C5.83474 11.139 7.50628 13.61 10.0764 14.6208M5.85687 10.2806L5.45633 10.5799L5.4561 10.5796L5.85687 10.2806ZM5.45088 10.5726L5.45085 10.5725L5.4508 10.5725C5.37167 10.4666 5.08919 10.0886 4.82593 9.56835C4.56604 9.05476 4.30318 8.36081 4.30318 7.62685C4.30318 6.24151 4.9995 5.50184 5.2936 5.19102L5.2936 5.19102C5.31098 5.17265 5.32482 5.15802 5.33694 5.14495C5.33694 5.14495 5.33694 5.14495 5.33694 5.14494L5.45088 10.5726ZM7.42222 4.80005C7.21127 4.67777 7.0043 4.67264 6.90962 4.67029M7.42222 4.80005L6.90962 4.67029M6.90962 4.67029C6.90652 4.67022 6.90353 4.67014 6.90067 4.67007L6.90962 4.67029ZM5.51626 18.1816C5.40475 18.1212 5.27446 18.1054 5.15176 18.1375L0.712141 19.2971L1.89671 14.9973C1.93232 14.868 1.91453 14.7299 1.84734 14.6139C1.01903 13.1837 0.583393 11.562 0.583985 9.91154V9.91136C0.583985 4.72456 4.82972 0.5 10.0419 0.5C12.5761 0.5 14.9474 1.48164 16.7334 3.25928C18.5188 5.03641 19.4999 7.40027 19.4999 9.91626C19.4999 15.103 15.2542 19.3275 10.0419 19.3275H10.037C8.45342 19.3275 6.89782 18.93 5.51626 18.1816Z" fill="#3A974C" stroke="#3A974C" stroke-linejoin="round"/>
</svg>
