<svg width="122" height="54" viewBox="0 0 122 54" fill="none" xmlns="http://www.w3.org/2000/svg">
<path d="M54.9217 9.86271C54.9217 8.86281 55.1217 7.97243 55.5216 7.19156C55.9311 6.41069 56.512 5.80599 57.2643 5.37747C58.0166 4.93942 58.9022 4.7204 59.9212 4.7204C60.7973 4.7204 61.5781 4.88704 62.2638 5.22034C62.9589 5.54412 63.5208 6.00597 63.9493 6.60591C64.3873 7.20585 64.6778 7.90577 64.8206 8.70569H61.4781C61.3258 8.37239 61.1067 8.11527 60.8211 7.93434C60.5449 7.74388 60.2259 7.64866 59.864 7.64866C59.3307 7.64866 58.907 7.84863 58.5927 8.24859C58.288 8.64855 58.1356 9.18659 58.1356 9.86271C58.1356 10.5388 58.288 11.0769 58.5927 11.4768C58.907 11.8768 59.3307 12.0768 59.864 12.0768C60.2259 12.0768 60.5449 11.9863 60.8211 11.8054C61.1067 11.6149 61.3258 11.353 61.4781 11.0197H64.8206C64.6778 11.8196 64.3873 12.5196 63.9493 13.1195C63.5208 13.7194 62.9589 14.1861 62.2638 14.5194C61.5781 14.8431 60.7973 15.005 59.9212 15.005C58.9022 15.005 58.0166 14.7908 57.2643 14.3622C56.512 13.9242 55.9311 13.3147 55.5216 12.5338C55.1217 11.753 54.9217 10.8626 54.9217 9.86271ZM71.6618 13.4052H68.2907L67.7907 14.9336H64.4625L68.1621 4.82039H71.8189L75.5042 14.9336H72.1617L71.6618 13.4052ZM70.8904 11.0197L69.9762 8.20574L69.062 11.0197H70.8904ZM80.5242 14.9336L78.6244 11.3054H78.6101V14.9336H75.439V4.82039H80.1528C80.9718 4.82039 81.6717 4.96799 82.2526 5.2632C82.8335 5.54888 83.2668 5.94408 83.5525 6.44878C83.8477 6.94397 83.9953 7.50581 83.9953 8.13432C83.9953 8.81044 83.8048 9.41037 83.4239 9.93413C83.0525 10.4579 82.5145 10.834 81.8098 11.0626L84.0096 14.9336H80.5242ZM78.6101 9.19135H79.8671C80.1719 9.19135 80.4004 9.12469 80.5528 8.99137C80.7051 8.84853 80.7813 8.6295 80.7813 8.3343C80.7813 8.06766 80.7004 7.85816 80.5385 7.70579C80.3861 7.55343 80.1623 7.47725 79.8671 7.47725H78.6101V9.19135ZM92.1647 4.82039V7.3344H89.4793V14.9336H86.3082V7.3344H83.6513V4.82039H92.1647ZM98.7242 13.4052H95.3531L94.8531 14.9336H91.5249L95.2245 4.82039H98.8813L102.567 14.9336H99.2241L98.7242 13.4052ZM97.9528 11.0197L97.0386 8.20574L96.1244 11.0197H97.9528ZM93.7104 4.23473C93.8628 3.34911 94.1294 2.71109 94.5103 2.32065C94.9008 1.92069 95.4007 1.72072 96.0102 1.72072C96.2387 1.72072 96.453 1.75404 96.653 1.8207C96.8529 1.88736 97.0672 1.98259 97.2957 2.10639C97.4767 2.20162 97.6195 2.27304 97.7243 2.32065C97.8385 2.35874 97.9528 2.37779 98.0671 2.37779C98.4194 2.37779 98.6289 2.154 98.6956 1.70643H100.253C100.1 2.59205 99.8288 3.23008 99.4384 3.62051C99.0575 4.01095 98.5623 4.20616 97.9528 4.20616C97.7243 4.20616 97.51 4.17284 97.31 4.10618C97.1101 4.03952 96.8958 3.94429 96.6672 3.82049C96.5339 3.75383 96.4006 3.6967 96.2673 3.64908C96.134 3.59194 96.0102 3.56338 95.8959 3.56338C95.5531 3.56338 95.3388 3.78716 95.2531 4.23473H93.7104ZM107.429 15.0336C106.477 15.0336 105.601 14.8098 104.801 14.3622C104.011 13.9147 103.382 13.2957 102.916 12.5053C102.449 11.7149 102.216 10.8245 102.216 9.83414C102.216 8.84377 102.449 7.95338 102.916 7.16299C103.382 6.3726 104.011 5.75838 104.801 5.32033C105.601 4.87276 106.477 4.64898 107.429 4.64898C108.382 4.64898 109.253 4.87276 110.043 5.32033C110.834 5.75838 111.458 6.3726 111.915 7.16299C112.381 7.95338 112.615 8.84377 112.615 9.83414C112.615 10.8245 112.381 11.7149 111.915 12.5053C111.458 13.2957 110.829 13.9147 110.029 14.3622C109.239 14.8098 108.372 15.0336 107.429 15.0336ZM107.429 12.0768C108.058 12.0768 108.544 11.8768 108.886 11.4768C109.229 11.0673 109.401 10.5198 109.401 9.83414C109.401 9.13897 109.229 8.59141 108.886 8.19145C108.544 7.78197 108.058 7.57723 107.429 7.57723C106.791 7.57723 106.301 7.78197 105.958 8.19145C105.615 8.59141 105.444 9.13897 105.444 9.83414C105.444 10.5198 105.615 11.0673 105.958 11.4768C106.301 11.8768 106.791 12.0768 107.429 12.0768ZM54.9217 23.8627C54.9217 22.8628 55.1217 21.9724 55.5216 21.1916C55.9311 20.4107 56.512 19.806 57.2643 19.3775C58.0166 18.9394 58.9022 18.7204 59.9212 18.7204C60.7973 18.7204 61.5781 18.887 62.2638 19.2203C62.9589 19.5441 63.5208 20.006 63.9493 20.6059C64.3873 21.2058 64.6778 21.9058 64.8206 22.7057H61.4781C61.3258 22.3724 61.1067 22.1153 60.8211 21.9343C60.5449 21.7439 60.2259 21.6487 59.864 21.6487C59.3307 21.6487 58.907 21.8486 58.5927 22.2486C58.288 22.6485 58.1356 23.1866 58.1356 23.8627C58.1356 24.5388 58.288 25.0769 58.5927 25.4768C58.907 25.8768 59.3307 26.0768 59.864 26.0768C60.2259 26.0768 60.5449 25.9863 60.8211 25.8054C61.1067 25.6149 61.3258 25.353 61.4781 25.0197H64.8206C64.6778 25.8196 64.3873 26.5196 63.9493 27.1195C63.5208 27.7194 62.9589 28.1861 62.2638 28.5194C61.5781 28.8431 60.7973 29.005 59.9212 29.005C58.9022 29.005 58.0166 28.7908 57.2643 28.3622C56.512 27.9242 55.9311 27.3147 55.5216 26.5338C55.1217 25.753 54.9217 24.8626 54.9217 23.8627ZM70.1048 29.0336C69.1525 29.0336 68.2764 28.8098 67.4765 28.3622C66.6861 27.9147 66.0576 27.2957 65.591 26.5053C65.1244 25.7149 64.8911 24.8245 64.8911 23.8341C64.8911 22.8438 65.1244 21.9534 65.591 21.163C66.0576 20.3726 66.6861 19.7584 67.4765 19.3203C68.2764 18.8728 69.1525 18.649 70.1048 18.649C71.0571 18.649 71.9284 18.8728 72.7188 19.3203C73.5092 19.7584 74.1329 20.3726 74.59 21.163C75.0566 21.9534 75.2899 22.8438 75.2899 23.8341C75.2899 24.8245 75.0566 25.7149 74.59 26.5053C74.1329 27.2957 73.5044 27.9147 72.7045 28.3622C71.9141 28.8098 71.0475 29.0336 70.1048 29.0336ZM70.1048 26.0768C70.7333 26.0768 71.2189 25.8768 71.5618 25.4768C71.9046 25.0673 72.076 24.5198 72.076 23.8341C72.076 23.139 71.9046 22.5914 71.5618 22.1915C71.2189 21.782 70.7333 21.5772 70.1048 21.5772C69.4668 21.5772 68.9763 21.782 68.6335 22.1915C68.2907 22.5914 68.1193 23.139 68.1193 23.8341C68.1193 24.5198 68.2907 25.0673 68.6335 25.4768C68.9763 25.8768 69.4668 26.0768 70.1048 26.0768ZM87.8041 18.8204V28.9336H84.6473V23.8913L83.0903 28.9336H80.3763L78.8194 23.8913V28.9336H75.6483V18.8204H79.5336L81.7619 24.8912L83.9331 18.8204H87.8041ZM65.392 33.8204L61.9924 43.9336H57.8928L54.4932 33.8204H57.8642L59.9497 40.7768L62.0209 33.8204H65.392ZM70.2443 44.0336C69.292 44.0336 68.4159 43.8098 67.616 43.3622C66.8256 42.9147 66.1971 42.2957 65.7305 41.5053C65.2639 40.7149 65.0305 39.8245 65.0305 38.8341C65.0305 37.8438 65.2639 36.9534 65.7305 36.163C66.1971 35.3726 66.8256 34.7584 67.616 34.3203C68.4159 33.8728 69.292 33.649 70.2443 33.649C71.1966 33.649 72.0679 33.8728 72.8583 34.3203C73.6487 34.7584 74.2724 35.3726 74.7295 36.163C75.1961 36.9534 75.4294 37.8438 75.4294 38.8341C75.4294 39.8245 75.1961 40.7149 74.7295 41.5053C74.2724 42.2957 73.6439 42.9147 72.844 43.3622C72.0536 43.8098 71.187 44.0336 70.2443 44.0336ZM70.2443 41.0768C70.8728 41.0768 71.3584 40.8768 71.7013 40.4768C72.0441 40.0673 72.2155 39.5198 72.2155 38.8341C72.2155 38.139 72.0441 37.5914 71.7013 37.1915C71.3584 36.782 70.8728 36.5772 70.2443 36.5772C69.6062 36.5772 69.1158 36.782 68.773 37.1915C68.4302 37.5914 68.2588 38.139 68.2588 38.8341C68.2588 39.5198 68.4302 40.0673 68.773 40.4768C69.1158 40.8768 69.6062 41.0768 70.2443 41.0768ZM75.5021 38.8627C75.5021 37.8628 75.7021 36.9724 76.102 36.1916C76.5115 35.4107 77.0924 34.806 77.8447 34.3775C78.597 33.9394 79.4826 33.7204 80.5016 33.7204C81.3777 33.7204 82.1585 33.887 82.8442 34.2203C83.5393 34.5441 84.1012 35.006 84.5297 35.6059C84.9677 36.2058 85.2582 36.9058 85.401 37.7057H82.0585C81.9062 37.3724 81.6871 37.1153 81.4015 36.9343C81.1253 36.7439 80.8063 36.6487 80.4444 36.6487C79.9111 36.6487 79.4874 36.8486 79.1731 37.2486C78.8684 37.6485 78.716 38.1866 78.716 38.8627C78.716 39.5388 78.8684 40.0769 79.1731 40.4768C79.4874 40.8768 79.9111 41.0768 80.4444 41.0768C80.8063 41.0768 81.1253 40.9863 81.4015 40.8054C81.6871 40.6149 81.9062 40.353 82.0585 40.0197H85.401C85.2582 40.8196 84.9677 41.5196 84.5297 42.1195C84.1012 42.7194 83.5393 43.1861 82.8442 43.5194C82.1585 43.8431 81.3777 44.005 80.5016 44.005C79.4826 44.005 78.597 43.7908 77.8447 43.3622C77.0924 42.9242 76.5115 42.3147 76.102 41.5338C75.7021 40.753 75.5021 39.8626 75.5021 38.8627ZM88.9282 36.3487V37.5914H92.0707V39.9769H88.9282V41.4053H92.4993V43.9336H85.7571V33.8204H92.4993V36.3487H88.9282ZM89.0711 32.1206L86.6999 33.2347V31.1778L89.0711 30.1065L91.428 31.1778V33.2347L89.0711 32.1206Z" fill="#00BBAB"/>
<path d="M0 13.0729C0 5.85294 5.85293 0 13.0729 0H50.8423V40.1905C50.8423 47.4104 44.9894 53.2633 37.7694 53.2633H0V13.0729Z" fill="#05E398"/>
<path fill-rule="evenodd" clip-rule="evenodd" d="M21.1125 22.8008C21.1125 25.1731 19.2171 27.0958 16.8785 27.0958C14.5399 27.0958 12.6445 25.1731 12.6445 22.8008C12.6445 20.4294 14.5399 18.5059 16.8785 18.5059C19.2171 18.5059 21.1125 20.4294 21.1125 22.8008ZM17.2175 32.5938C17.2175 37.3183 21.0281 41.1837 25.6855 41.1837C30.3429 41.1837 34.1534 37.4038 34.1534 32.5938H17.2175ZM33.8141 27.0958C36.1527 27.0958 38.0481 25.1731 38.0481 22.8008C38.0481 20.4294 36.1527 18.5059 33.8141 18.5059C31.4755 18.5059 29.5802 20.4294 29.5802 22.8008C29.5802 25.1731 31.4755 27.0958 33.8141 27.0958Z" fill="white"/>
</svg>
