<svg width="112" height="49" viewBox="0 0 112 49" fill="none" xmlns="http://www.w3.org/2000/svg">
<path d="M50.4198 9.03909C50.4198 8.12115 50.6034 7.30375 50.9705 6.58689C51.3464 5.87003 51.8797 5.31489 52.5704 4.92149C53.261 4.51935 54.074 4.31828 55.0094 4.31828C55.8137 4.31828 56.5306 4.47127 57.16 4.77724C57.7982 5.07448 58.314 5.49848 58.7074 6.04924C59.1096 6.6 59.3762 7.24256 59.5073 7.97691H56.4388C56.2989 7.67093 56.0979 7.43489 55.8356 7.26879C55.5821 7.09394 55.2892 7.00652 54.957 7.00652C54.4674 7.00652 54.0784 7.1901 53.7899 7.55728C53.5102 7.92445 53.3703 8.41839 53.3703 9.03909C53.3703 9.65979 53.5102 10.1537 53.7899 10.5209C54.0784 10.8881 54.4674 11.0717 54.957 11.0717C55.2892 11.0717 55.5821 10.9886 55.8356 10.8225C56.0979 10.6477 56.2989 10.4073 56.4388 10.1013H59.5073C59.3762 10.8356 59.1096 11.4782 58.7074 12.0289C58.314 12.5797 57.7982 13.0081 57.16 13.314C56.5306 13.6113 55.8137 13.7599 55.0094 13.7599C54.074 13.7599 53.261 13.5632 52.5704 13.1698C51.8797 12.7677 51.3464 12.2082 50.9705 11.4913C50.6034 10.7744 50.4198 9.95703 50.4198 9.03909ZM65.7877 12.2912H62.693L62.234 13.6943H59.1786L62.5749 4.41007H65.932L69.3152 13.6943H66.2467L65.7877 12.2912ZM65.0796 10.1013L64.2403 7.51794L63.4011 10.1013H65.0796ZM73.9237 13.6943L72.1797 10.3635H72.1665V13.6943H69.2554V4.41007H73.5828C74.3346 4.41007 74.9772 4.54558 75.5105 4.81658C76.0437 5.07885 76.4415 5.44166 76.7038 5.90499C76.9748 6.35959 77.1103 6.87538 77.1103 7.45237C77.1103 8.07307 76.9354 8.62383 76.5858 9.10466C76.2448 9.58548 75.7509 9.9308 75.1039 10.1406L77.1234 13.6943H73.9237ZM72.1665 8.42276H73.3205C73.6003 8.42276 73.8101 8.36157 73.95 8.23917C74.0898 8.10804 74.1598 7.90697 74.1598 7.63596C74.1598 7.39118 74.0855 7.19885 73.9369 7.05897C73.797 6.91909 73.5915 6.84916 73.3205 6.84916H72.1665V8.42276ZM84.6101 4.41007V6.71802H82.1448V13.6943H79.2336V6.71802H76.7945V4.41007H84.6101ZM90.6319 12.2912H87.5372L87.0782 13.6943H84.0228L87.4191 4.41007H90.7762L94.1594 13.6943H91.0909L90.6319 12.2912ZM89.9238 10.1013L89.0845 7.51794L88.2453 10.1013H89.9238ZM86.0291 3.87242C86.169 3.05939 86.4138 2.47366 86.7635 2.11523C87.1219 1.74806 87.5809 1.56447 88.1404 1.56447C88.3502 1.56447 88.5469 1.59507 88.7305 1.65626C88.9141 1.71746 89.1108 1.80488 89.3206 1.91853C89.4867 2.00595 89.6178 2.07152 89.714 2.11523C89.8189 2.1502 89.9238 2.16768 90.0287 2.16768C90.3522 2.16768 90.5445 1.96224 90.6057 1.55136H92.035C91.8952 2.36438 91.646 2.95011 91.2876 3.30855C90.9379 3.66698 90.4833 3.8462 89.9238 3.8462C89.714 3.8462 89.5173 3.8156 89.3337 3.7544C89.1501 3.69321 88.9534 3.60578 88.7436 3.49213C88.6212 3.43094 88.4988 3.37849 88.3764 3.33477C88.254 3.28232 88.1404 3.25609 88.0355 3.25609C87.7207 3.25609 87.524 3.46154 87.4454 3.87242H86.0291ZM98.6237 13.7861C97.7495 13.7861 96.9452 13.5807 96.2108 13.1698C95.4852 12.7589 94.9082 12.1907 94.4799 11.4651C94.0515 10.7395 93.8373 9.92206 93.8373 9.01286C93.8373 8.10367 94.0515 7.28627 94.4799 6.56066C94.9082 5.83506 95.4852 5.27118 96.2108 4.86904C96.9452 4.45815 97.7495 4.25271 98.6237 4.25271C99.4979 4.25271 100.298 4.45815 101.023 4.86904C101.749 5.27118 102.322 5.83506 102.741 6.56066C103.17 7.28627 103.384 8.10367 103.384 9.01286C103.384 9.92206 103.17 10.7395 102.741 11.4651C102.322 12.1907 101.745 12.7589 101.01 13.1698C100.285 13.5807 99.4892 13.7861 98.6237 13.7861ZM98.6237 11.0717C99.2007 11.0717 99.6465 10.8881 99.9613 10.5209C100.276 10.145 100.433 9.6423 100.433 9.01286C100.433 8.37468 100.276 7.872 99.9613 7.50483C99.6465 7.12891 99.2007 6.94095 98.6237 6.94095C98.038 6.94095 97.5877 7.12891 97.273 7.50483C96.9583 7.872 96.8009 8.37468 96.8009 9.01286C96.8009 9.6423 96.9583 10.145 97.273 10.5209C97.5877 10.8881 98.038 11.0717 98.6237 11.0717ZM50.4198 22.0391C50.4198 21.1212 50.6034 20.3038 50.9705 19.5869C51.3464 18.87 51.8797 18.3149 52.5704 17.9215C53.261 17.5193 54.074 17.3183 55.0094 17.3183C55.8137 17.3183 56.5306 17.4713 57.16 17.7772C57.7982 18.0745 58.314 18.4985 58.7074 19.0492C59.1096 19.6 59.3762 20.2426 59.5073 20.9769H56.4388C56.2989 20.6709 56.0979 20.4349 55.8356 20.2688C55.5821 20.0939 55.2892 20.0065 54.957 20.0065C54.4674 20.0065 54.0784 20.1901 53.7899 20.5573C53.5102 20.9245 53.3703 21.4184 53.3703 22.0391C53.3703 22.6598 53.5102 23.1537 53.7899 23.5209C54.0784 23.8881 54.4674 24.0717 54.957 24.0717C55.2892 24.0717 55.5821 23.9886 55.8356 23.8225C56.0979 23.6477 56.2989 23.4073 56.4388 23.1013H59.5073C59.3762 23.8356 59.1096 24.4782 58.7074 25.0289C58.314 25.5797 57.7982 26.0081 57.16 26.314C56.5306 26.6113 55.8137 26.7599 55.0094 26.7599C54.074 26.7599 53.261 26.5632 52.5704 26.1698C51.8797 25.7677 51.3464 25.2082 50.9705 24.4913C50.6034 23.7744 50.4198 22.957 50.4198 22.0391ZM64.3584 26.7861C63.4841 26.7861 62.6798 26.5807 61.9455 26.1698C61.2199 25.7589 60.6429 25.1907 60.2145 24.4651C59.7862 23.7395 59.572 22.9221 59.572 22.0129C59.572 21.1037 59.7862 20.2863 60.2145 19.5607C60.6429 18.8351 61.2199 18.2712 61.9455 17.869C62.6798 17.4582 63.4841 17.2527 64.3584 17.2527C65.2326 17.2527 66.0325 17.4582 66.7581 17.869C67.4837 18.2712 68.0563 18.8351 68.476 19.5607C68.9043 20.2863 69.1185 21.1037 69.1185 22.0129C69.1185 22.9221 68.9043 23.7395 68.476 24.4651C68.0563 25.1907 67.4793 25.7589 66.745 26.1698C66.0194 26.5807 65.2238 26.7861 64.3584 26.7861ZM64.3584 24.0717C64.9353 24.0717 65.3812 23.8881 65.6959 23.5209C66.0106 23.145 66.168 22.6423 66.168 22.0129C66.168 21.3747 66.0106 20.872 65.6959 20.5048C65.3812 20.1289 64.9353 19.941 64.3584 19.941C63.7726 19.941 63.3224 20.1289 63.0077 20.5048C62.693 20.872 62.5356 21.3747 62.5356 22.0129C62.5356 22.6423 62.693 23.145 63.0077 23.5209C63.3224 23.8881 63.7726 24.0717 64.3584 24.0717ZM80.6069 17.4101V26.6943H77.7089V22.0653L76.2795 26.6943H73.788L72.3586 22.0653V26.6943H69.4475V17.4101H73.0143L75.06 22.9833L77.0532 17.4101H80.6069ZM60.0319 30.4101L56.9109 39.6943H53.1473L50.0264 30.4101H53.1211L55.0357 36.7963L56.9371 30.4101H60.0319ZM64.4864 39.7861C63.6122 39.7861 62.8079 39.5807 62.0736 39.1698C61.348 38.7589 60.771 38.1907 60.3426 37.4651C59.9142 36.7395 59.7 35.9221 59.7 35.0129C59.7 34.1037 59.9142 33.2863 60.3426 32.5607C60.771 31.8351 61.348 31.2712 62.0736 30.869C62.8079 30.4582 63.6122 30.2527 64.4864 30.2527C65.3606 30.2527 66.1606 30.4582 66.8862 30.869C67.6118 31.2712 68.1844 31.8351 68.604 32.5607C69.0324 33.2863 69.2466 34.1037 69.2466 35.0129C69.2466 35.9221 69.0324 36.7395 68.604 37.4651C68.1844 38.1907 67.6074 38.7589 66.8731 39.1698C66.1474 39.5807 65.3519 39.7861 64.4864 39.7861ZM64.4864 37.0717C65.0634 37.0717 65.5093 36.8881 65.824 36.5209C66.1387 36.145 66.2961 35.6423 66.2961 35.0129C66.2961 34.3747 66.1387 33.872 65.824 33.5048C65.5093 33.1289 65.0634 32.941 64.4864 32.941C63.9007 32.941 63.4505 33.1289 63.1357 33.5048C62.821 33.872 62.6637 34.3747 62.6637 35.0129C62.6637 35.6423 62.821 36.145 63.1357 36.5209C63.4505 36.8881 63.9007 37.0717 64.4864 37.0717ZM69.3133 35.0391C69.3133 34.1212 69.4969 33.3038 69.864 32.5869C70.2399 31.87 70.7732 31.3149 71.4639 30.9215C72.1545 30.5193 72.9675 30.3183 73.9029 30.3183C74.7072 30.3183 75.4241 30.4713 76.0535 30.7772C76.6917 31.0745 77.2075 31.4985 77.6009 32.0492C78.0031 32.6 78.2697 33.2426 78.4008 33.9769H75.3323C75.1924 33.6709 74.9914 33.4349 74.7291 33.2688C74.4756 33.0939 74.1827 33.0065 73.8505 33.0065C73.3609 33.0065 72.9719 33.1901 72.6834 33.5573C72.4036 33.9245 72.2638 34.4184 72.2638 35.0391C72.2638 35.6598 72.4036 36.1537 72.6834 36.5209C72.9719 36.8881 73.3609 37.0717 73.8505 37.0717C74.1827 37.0717 74.4756 36.9886 74.7291 36.8225C74.9914 36.6477 75.1924 36.4073 75.3323 36.1013H78.4008C78.2697 36.8356 78.0031 37.4782 77.6009 38.0289C77.2075 38.5797 76.6917 39.0081 76.0535 39.314C75.4241 39.6113 74.7072 39.7599 73.9029 39.7599C72.9675 39.7599 72.1545 39.5632 71.4639 39.1698C70.7732 38.7677 70.2399 38.2082 69.864 37.4913C69.4969 36.7744 69.3133 35.957 69.3133 35.0391ZM81.6389 32.7311V33.872H84.5239V36.0619H81.6389V37.3733H84.9173V39.6943H78.7277V30.4101H84.9173V32.7311H81.6389ZM81.77 28.8496L79.5932 29.8724V27.9841L81.77 27.0006L83.9337 27.9841V29.8724L81.77 28.8496Z" fill="#929292"/>
<path d="M0 12.0013C0 5.37318 5.37319 0 12.0013 0H46.6749V36.8962C46.6749 43.5244 41.3017 48.8975 34.6736 48.8975H0V12.0013Z" fill="#C4C6C5"/>
<path fill-rule="evenodd" clip-rule="evenodd" d="M19.3833 20.9332C19.3833 23.111 17.6432 24.8761 15.4963 24.8761C13.3494 24.8761 11.6094 23.111 11.6094 20.9332C11.6094 18.7561 13.3494 16.9902 15.4963 16.9902C17.6432 16.9902 19.3833 18.7561 19.3833 20.9332ZM15.8076 29.9231C15.8076 34.2604 19.3058 37.809 23.5815 37.809C27.8571 37.809 31.3553 34.3389 31.3553 29.9231H15.8076ZM31.0436 24.8762C33.1906 24.8762 34.9306 23.1111 34.9306 20.9333C34.9306 18.7562 33.1906 16.9904 31.0436 16.9904C28.8967 16.9904 27.1567 18.7562 27.1567 20.9333C27.1567 23.1111 28.8967 24.8762 31.0436 24.8762Z" fill="white"/>
</svg>
