<svg width="169" height="74" viewBox="0 0 169 74" fill="none" xmlns="http://www.w3.org/2000/svg">
<path d="M76.0799 14.04C76.0799 12.6549 76.357 11.4215 76.911 10.3398C77.4782 9.25813 78.2829 8.42047 79.325 7.82686C80.3672 7.22005 81.594 6.91665 83.0054 6.91665C84.2191 6.91665 85.3007 7.1475 86.2505 7.6092C87.2135 8.05771 87.9918 8.69749 88.5854 9.52855C89.1922 10.3596 89.5946 11.3292 89.7924 12.4373H85.1622C84.9512 11.9756 84.6478 11.6194 84.252 11.3688C83.8695 11.1049 83.4276 10.973 82.9263 10.973C82.1876 10.973 81.6006 11.25 81.1652 11.8041C80.7431 12.3581 80.532 13.1034 80.532 14.04C80.532 14.9766 80.7431 15.7219 81.1652 16.276C81.6006 16.83 82.1876 17.107 82.9263 17.107C83.4276 17.107 83.8695 16.9817 84.252 16.7311C84.6478 16.4672 84.9512 16.1045 85.1622 15.6428H89.7924C89.5946 16.7509 89.1922 17.7204 88.5854 18.5515C87.9918 19.3825 87.2135 20.0289 86.2505 20.4906C85.3007 20.9391 84.2191 21.1634 83.0054 21.1634C81.594 21.1634 80.3672 20.8666 79.325 20.273C78.2829 19.6662 77.4782 18.8219 76.911 17.7402C76.357 16.6585 76.0799 15.4251 76.0799 14.04ZM99.2691 18.9472H94.5993L93.9068 21.0645H89.2964L94.4212 7.05516H99.4867L104.592 21.0645H99.9616L99.2691 18.9472ZM98.2006 15.6428L96.9342 11.7447L95.6678 15.6428H98.2006ZM111.546 21.0645L108.914 16.0385H108.894V21.0645H104.502V7.05516H111.031C112.166 7.05516 113.135 7.25963 113.94 7.66856C114.745 8.0643 115.345 8.61175 115.741 9.31089C116.15 9.99685 116.354 10.7751 116.354 11.6458C116.354 12.5824 116.09 13.4134 115.563 14.139C115.048 14.8645 114.303 15.3855 113.327 15.7021L116.374 21.0645H111.546ZM108.894 13.11H110.636C111.058 13.11 111.374 13.0177 111.585 12.833C111.796 12.6351 111.902 12.3317 111.902 11.9228C111.902 11.5534 111.79 11.2632 111.566 11.0522C111.354 10.8411 111.044 10.7356 110.636 10.7356H108.894V13.11ZM127.671 7.05516V10.5377H123.951V21.0645H119.558V10.5377H115.878V7.05516H127.671ZM136.757 18.9472H132.087L131.395 21.0645H126.784L131.909 7.05516H136.975L142.08 21.0645H137.45L136.757 18.9472ZM135.689 15.6428L134.422 11.7447L133.156 15.6428H135.689ZM129.812 6.24389C130.023 5.01708 130.392 4.13326 130.92 3.59241C131.461 3.03837 132.153 2.76135 132.998 2.76135C133.314 2.76135 133.611 2.80752 133.888 2.89986C134.165 2.9922 134.462 3.12411 134.778 3.2956C135.029 3.42752 135.227 3.52645 135.372 3.59241C135.53 3.64517 135.689 3.67156 135.847 3.67156C136.335 3.67156 136.625 3.36156 136.718 2.74156H138.874C138.663 3.96836 138.287 4.85219 137.747 5.39304C137.219 5.93389 136.533 6.20431 135.689 6.20431C135.372 6.20431 135.075 6.15814 134.798 6.0658C134.521 5.97346 134.224 5.84155 133.908 5.67006C133.723 5.57772 133.538 5.49857 133.354 5.43261C133.169 5.35346 132.998 5.31389 132.839 5.31389C132.364 5.31389 132.068 5.62389 131.949 6.24389H129.812ZM148.816 21.203C147.497 21.203 146.283 20.893 145.175 20.273C144.081 19.653 143.21 18.7955 142.563 17.7006C141.917 16.6058 141.594 15.3724 141.594 14.0004C141.594 12.6285 141.917 11.3951 142.563 10.3002C143.21 9.20536 144.081 8.35451 145.175 7.74771C146.283 7.12771 147.497 6.81771 148.816 6.81771C150.135 6.81771 151.342 7.12771 152.437 7.74771C153.532 8.35451 154.396 9.20536 155.029 10.3002C155.676 11.3951 155.999 12.6285 155.999 14.0004C155.999 15.3724 155.676 16.6058 155.029 17.7006C154.396 18.7955 153.526 19.653 152.417 20.273C151.323 20.893 150.122 21.203 148.816 21.203ZM148.816 17.107C149.687 17.107 150.36 16.83 150.835 16.276C151.309 15.7087 151.547 14.9502 151.547 14.0004C151.547 13.0375 151.309 12.279 150.835 11.7249C150.36 11.1577 149.687 10.8741 148.816 10.8741C147.932 10.8741 147.253 11.1577 146.778 11.7249C146.303 12.279 146.066 13.0375 146.066 14.0004C146.066 14.9502 146.303 15.7087 146.778 16.276C147.253 16.83 147.932 17.107 148.816 17.107ZM76.0799 34.04C76.0799 32.6549 76.357 31.4215 76.911 30.3398C77.4782 29.2581 78.2829 28.4205 79.325 27.8269C80.3672 27.2201 81.594 26.9166 83.0054 26.9166C84.2191 26.9166 85.3007 27.1475 86.2505 27.6092C87.2135 28.0577 87.9918 28.6975 88.5854 29.5286C89.1922 30.3596 89.5946 31.3292 89.7924 32.4373H85.1622C84.9512 31.9756 84.6478 31.6194 84.252 31.3688C83.8695 31.1049 83.4276 30.973 82.9263 30.973C82.1876 30.973 81.6006 31.25 81.1652 31.8041C80.7431 32.3581 80.532 33.1034 80.532 34.04C80.532 34.9766 80.7431 35.7219 81.1652 36.276C81.6006 36.83 82.1876 37.107 82.9263 37.107C83.4276 37.107 83.8695 36.9817 84.252 36.7311C84.6478 36.4672 84.9512 36.1045 85.1622 35.6428H89.7924C89.5946 36.7509 89.1922 37.7204 88.5854 38.5515C87.9918 39.3825 87.2135 40.0289 86.2505 40.4906C85.3007 40.9391 84.2191 41.1634 83.0054 41.1634C81.594 41.1634 80.3672 40.8666 79.325 40.273C78.2829 39.6662 77.4782 38.8219 76.911 37.7402C76.357 36.6585 76.0799 35.4251 76.0799 34.04ZM97.1123 41.203C95.7931 41.203 94.5795 40.893 93.4714 40.273C92.3766 39.653 91.5059 38.7955 90.8595 37.7006C90.2132 36.6058 89.89 35.3724 89.89 34.0004C89.89 32.6285 90.2132 31.3951 90.8595 30.3002C91.5059 29.2054 92.3766 28.3545 93.4714 27.7477C94.5795 27.1277 95.7931 26.8177 97.1123 26.8177C98.4314 26.8177 99.6384 27.1277 100.733 27.7477C101.828 28.3545 102.692 29.2054 103.325 30.3002C103.972 31.3951 104.295 32.6285 104.295 34.0004C104.295 35.3724 103.972 36.6058 103.325 37.7006C102.692 38.7955 101.822 39.653 100.714 40.273C99.6187 40.893 98.4182 41.203 97.1123 41.203ZM97.1123 37.107C97.9829 37.107 98.6557 36.83 99.1306 36.276C99.6055 35.7087 99.8429 34.9502 99.8429 34.0004C99.8429 33.0375 99.6055 32.279 99.1306 31.7249C98.6557 31.1577 97.9829 30.8741 97.1123 30.8741C96.2285 30.8741 95.5491 31.1577 95.0742 31.7249C94.5993 32.279 94.3619 33.0375 94.3619 34.0004C94.3619 34.9502 94.5993 35.7087 95.0742 36.276C95.5491 36.83 96.2285 37.107 97.1123 37.107ZM121.63 27.0552V41.0645H117.257V34.0796L115.1 41.0645H111.341L109.184 34.0796V41.0645H104.791V27.0552H110.173L113.26 35.4647L116.268 27.0552H121.63ZM90.5839 46.0552L85.8746 60.0645H80.1957L75.4863 46.0552H80.1561L83.045 55.6915L85.9142 46.0552H90.5839ZM97.3055 60.203C95.9864 60.203 94.7728 59.893 93.6647 59.273C92.5698 58.653 91.6992 57.7955 91.0528 56.7006C90.4064 55.6058 90.0832 54.3724 90.0832 53.0004C90.0832 51.6285 90.4064 50.3951 91.0528 49.3002C91.6992 48.2054 92.5698 47.3545 93.6647 46.7477C94.7728 46.1277 95.9864 45.8177 97.3055 45.8177C98.6247 45.8177 99.8317 46.1277 100.927 46.7477C102.021 47.3545 102.885 48.2054 103.519 49.3002C104.165 50.3951 104.488 51.6285 104.488 53.0004C104.488 54.3724 104.165 55.6058 103.519 56.7006C102.885 57.7955 102.015 58.653 100.907 59.273C99.8119 59.893 98.6115 60.203 97.3055 60.203ZM97.3055 56.107C98.1761 56.107 98.8489 55.83 99.3238 55.276C99.7987 54.7087 100.036 53.9502 100.036 53.0004C100.036 52.0375 99.7987 51.279 99.3238 50.7249C98.8489 50.1577 98.1761 49.8741 97.3055 49.8741C96.4217 49.8741 95.7423 50.1577 95.2674 50.7249C94.7925 51.279 94.5551 52.0375 94.5551 53.0004C94.5551 53.9502 94.7925 54.7087 95.2674 55.276C95.7423 55.83 96.4217 56.107 97.3055 56.107ZM104.589 53.04C104.589 51.6549 104.866 50.4215 105.42 49.3398C105.987 48.2581 106.792 47.4205 107.834 46.8269C108.876 46.2201 110.103 45.9166 111.514 45.9166C112.728 45.9166 113.81 46.1475 114.759 46.6092C115.722 47.0577 116.501 47.6975 117.094 48.5286C117.701 49.3596 118.103 50.3292 118.301 51.4373H113.671C113.46 50.9756 113.157 50.6194 112.761 50.3688C112.378 50.1049 111.937 49.973 111.435 49.973C110.697 49.973 110.109 50.25 109.674 50.8041C109.252 51.3581 109.041 52.1034 109.041 53.04C109.041 53.9766 109.252 54.7219 109.674 55.276C110.109 55.83 110.697 56.107 111.435 56.107C111.937 56.107 112.378 55.9817 112.761 55.7311C113.157 55.4672 113.46 55.1045 113.671 54.6428H118.301C118.103 55.7509 117.701 56.7204 117.094 57.5515C116.501 58.3825 115.722 59.0289 114.759 59.4906C113.81 59.9391 112.728 60.1634 111.514 60.1634C110.103 60.1634 108.876 59.8666 107.834 59.273C106.792 58.6662 105.987 57.8219 105.42 56.7402C104.866 55.6585 104.589 54.4251 104.589 53.04ZM123.187 49.5575V51.279H127.541V54.5834H123.187V56.5621H128.134V60.0645H118.795V46.0552H128.134V49.5575H123.187ZM123.385 43.7005L120.101 45.2439V42.3945L123.385 40.9105L126.65 42.3945V45.2439L123.385 43.7005Z" fill="#00BBAB"/>
<path d="M0 18.1092C0 8.10774 8.10775 0 18.1092 0H70.4291V55.6737C70.4291 65.6752 62.3214 73.7829 52.32 73.7829H0V18.1092Z" fill="#05E398"/>
<path fill-rule="evenodd" clip-rule="evenodd" d="M29.2478 31.5863C29.2478 34.8725 26.6222 37.5359 23.3827 37.5359C20.1431 37.5359 17.5176 34.8725 17.5176 31.5863C17.5176 28.3013 20.1431 25.6367 23.3827 25.6367C26.6222 25.6367 29.2478 28.3013 29.2478 31.5863ZM23.8523 45.1515C23.8523 51.696 29.1309 57.0507 35.5825 57.0507C42.0341 57.0507 47.3127 51.8146 47.3127 45.1515H23.8523ZM46.8426 37.5359C50.0822 37.5359 52.7077 34.8725 52.7077 31.5863C52.7077 28.3013 50.0822 25.6367 46.8426 25.6367C43.6031 25.6367 40.9775 28.3013 40.9775 31.5863C40.9775 34.8725 43.6031 37.5359 46.8426 37.5359Z" fill="white"/>
</svg>
