<svg width="47" height="50" viewBox="0 0 47 50" fill="none" xmlns="http://www.w3.org/2000/svg">
<path d="M0 12.0849C0 5.41062 5.41061 0 12.0849 0H47V37.1531C47 43.8275 41.5894 49.2381 34.9151 49.2381H0V12.0849Z" fill="#05E398"/>
<path fill-rule="evenodd" clip-rule="evenodd" d="M19.5175 21.0788C19.5175 23.2718 17.7653 25.0492 15.6035 25.0492C13.4416 25.0492 11.6895 23.2718 11.6895 21.0788C11.6895 18.8865 13.4416 17.1084 15.6035 17.1084C17.7653 17.1084 19.5175 18.8865 19.5175 21.0788ZM15.917 30.1313C15.917 34.4987 19.4396 38.072 23.745 38.072C28.0504 38.072 31.573 34.5778 31.573 30.1313H15.917ZM31.2592 25.0492C33.421 25.0492 35.1732 23.2718 35.1732 21.0788C35.1732 18.8865 33.421 17.1084 31.2592 17.1084C29.0973 17.1084 27.3452 18.8865 27.3452 21.0788C27.3452 23.2718 29.0973 25.0492 31.2592 25.0492Z" fill="white"/>
</svg>
